<mxfile host="app.diagrams.net" modified="2023-12-13T20:58:55.879Z" agent="Mozilla/5.0 (Windows NT 10.0; Win64; x64) AppleWebKit/537.36 (KHTML, like Gecko) Chrome/120.0.0.0 Safari/537.36" etag="3Nfo_AKpo3v6KZ-HZO6g" version="22.1.8" type="device">
  <diagram name="Страница — 1" id="JtmX9zbaTFimsasZ-Xf4">
    <mxGraphModel dx="993" dy="586" grid="1" gridSize="10" guides="1" tooltips="1" connect="1" arrows="1" fold="1" page="1" pageScale="1" pageWidth="827" pageHeight="1169" math="0" shadow="0">
      <root>
        <mxCell id="0" />
        <mxCell id="1" parent="0" />
        <mxCell id="phHmt3kM-QCntrN6PEFE-1" value="Заставочный экран" style="rounded=1;whiteSpace=wrap;html=1;fillColor=#dae8fc;strokeColor=#6c8ebf;" vertex="1" parent="1">
          <mxGeometry x="320" y="60" width="200" height="60" as="geometry" />
        </mxCell>
        <mxCell id="phHmt3kM-QCntrN6PEFE-2" value="Дополнительное окно" style="rounded=1;whiteSpace=wrap;html=1;" vertex="1" parent="1">
          <mxGeometry x="160" y="160" width="160" height="60" as="geometry" />
        </mxCell>
        <mxCell id="phHmt3kM-QCntrN6PEFE-4" value="Игровое окно" style="rounded=1;whiteSpace=wrap;html=1;" vertex="1" parent="1">
          <mxGeometry x="520" y="160" width="160" height="60" as="geometry" />
        </mxCell>
        <mxCell id="phHmt3kM-QCntrN6PEFE-13" value="Дополнительное окошко&lt;br&gt;(пауза)" style="rounded=1;whiteSpace=wrap;html=1;" vertex="1" parent="1">
          <mxGeometry x="520" y="320" width="160" height="60" as="geometry" />
        </mxCell>
        <mxCell id="phHmt3kM-QCntrN6PEFE-17" value="" style="endArrow=none;html=1;rounded=0;edgeStyle=orthogonalEdgeStyle;exitX=0.5;exitY=0;exitDx=0;exitDy=0;entryX=0;entryY=0.5;entryDx=0;entryDy=0;" edge="1" parent="1" source="phHmt3kM-QCntrN6PEFE-2" target="phHmt3kM-QCntrN6PEFE-1">
          <mxGeometry width="50" height="50" relative="1" as="geometry">
            <mxPoint x="330" y="250" as="sourcePoint" />
            <mxPoint x="380" y="200" as="targetPoint" />
          </mxGeometry>
        </mxCell>
        <mxCell id="phHmt3kM-QCntrN6PEFE-18" value="" style="endArrow=none;html=1;rounded=0;edgeStyle=orthogonalEdgeStyle;entryX=1;entryY=0.5;entryDx=0;entryDy=0;exitX=0.5;exitY=0;exitDx=0;exitDy=0;" edge="1" parent="1" source="phHmt3kM-QCntrN6PEFE-4" target="phHmt3kM-QCntrN6PEFE-1">
          <mxGeometry width="50" height="50" relative="1" as="geometry">
            <mxPoint x="330" y="250" as="sourcePoint" />
            <mxPoint x="380" y="200" as="targetPoint" />
          </mxGeometry>
        </mxCell>
        <mxCell id="phHmt3kM-QCntrN6PEFE-19" value="" style="endArrow=none;html=1;rounded=0;edgeStyle=orthogonalEdgeStyle;entryX=0.5;entryY=1;entryDx=0;entryDy=0;exitX=0.5;exitY=0;exitDx=0;exitDy=0;" edge="1" parent="1" source="phHmt3kM-QCntrN6PEFE-13" target="phHmt3kM-QCntrN6PEFE-4">
          <mxGeometry width="50" height="50" relative="1" as="geometry">
            <mxPoint x="240" y="340" as="sourcePoint" />
            <mxPoint x="290" y="290" as="targetPoint" />
          </mxGeometry>
        </mxCell>
      </root>
    </mxGraphModel>
  </diagram>
</mxfile>
